<svg width="251" height="251" viewBox="0 0 251 251" fill="none" xmlns="http://www.w3.org/2000/svg">
<g id="qr-code-svgrepo-com 2" opacity="0.1">
<g id="SVGRepo_iconCarrier">
<path id="Vector" d="M20.9775 176.777C20.9775 163.142 20.9775 156.324 24.0466 151.316C25.7639 148.514 28.12 146.158 30.9223 144.44C35.9306 141.372 42.7481 141.372 56.3831 141.372H67.8379C87.4736 141.372 97.2915 141.372 103.391 147.472C109.492 153.572 109.492 163.39 109.492 183.025V194.48C109.492 208.115 109.492 214.933 106.423 219.941C104.706 222.743 102.349 225.099 99.5467 226.817C94.5385 229.885 87.7209 229.885 74.0859 229.885C53.6334 229.885 43.4071 229.885 35.8947 225.282C31.6913 222.706 28.1571 219.172 25.5811 214.968C20.9775 207.456 20.9775 197.23 20.9775 176.777Z" stroke="#1C274C" stroke-width="15.6201"/>
<path id="Vector_2" d="M140.732 57.023C140.732 43.388 140.732 36.5704 143.801 31.5622C145.518 28.7598 147.874 26.4037 150.677 24.6864C155.685 21.6174 162.502 21.6174 176.138 21.6174C196.59 21.6174 206.816 21.6174 214.329 26.2209C218.533 28.7969 222.067 32.3311 224.642 36.5346C229.246 44.0469 229.246 54.2732 229.246 74.7257C229.246 88.3608 229.246 95.1783 226.177 100.187C224.46 102.989 222.103 105.345 219.301 107.063C214.293 110.131 207.476 110.131 193.84 110.131H182.386C162.75 110.131 152.932 110.131 146.832 104.031C140.732 97.9313 140.732 88.1134 140.732 68.4777V57.023Z" stroke="#1C274C" stroke-width="15.6201"/>
<path id="Vector_3" opacity="0.5" d="M171.972 65.8744C171.972 60.5072 171.972 57.8237 173.317 55.9288C173.791 55.2602 174.375 54.6764 175.043 54.2021C176.938 52.8576 179.622 52.8576 184.989 52.8576C190.356 52.8576 193.04 52.8576 194.935 54.2021C195.603 54.6764 196.186 55.2602 196.661 55.9288C198.006 57.8237 198.006 60.5072 198.006 65.8744C198.006 71.2415 198.006 73.9251 196.661 75.8199C196.186 76.4885 195.603 77.0723 194.935 77.5467C193.04 78.8911 190.356 78.8911 184.989 78.8911C179.622 78.8911 176.938 78.8911 175.043 77.5467C174.375 77.0723 173.791 76.4885 173.317 75.8199C171.972 73.9251 171.972 71.2415 171.972 65.8744Z" fill="#1C274C"/>
<path id="Vector_4" d="M198.006 141.372H177.179C162.553 141.372 155.241 141.372 149.988 144.882C147.714 146.401 145.762 148.354 144.242 150.628C140.732 155.881 140.732 163.193 140.732 177.818" stroke="#1C274C" stroke-width="15.6201"/>
<path id="Vector_5" opacity="0.5" d="M132.922 229.885C132.922 234.199 136.419 237.696 140.732 237.696C145.045 237.696 148.542 234.199 148.542 229.885H132.922ZM132.922 198.645V229.885H148.542V198.645H132.922Z" fill="#1C274C"/>
<path id="Vector_6" d="M177.179 229.885H198.006C207.71 229.885 212.561 229.885 216.389 228.301C221.492 226.187 225.547 222.132 227.661 217.029C229.246 213.201 229.246 208.35 229.246 198.645" stroke="#1C274C" stroke-width="15.6201" stroke-linejoin="round"/>
<path id="Vector_7" opacity="0.5" d="M237.056 141.372C237.056 137.058 233.559 133.561 229.246 133.561C224.932 133.561 221.436 137.058 221.436 141.372H237.056ZM237.056 177.818V141.372H221.436V177.818H237.056Z" fill="#1C274C"/>
<path id="Vector_8" d="M20.9775 74.7257C20.9775 54.2732 20.9775 44.0469 25.5811 36.5346C28.1571 32.3311 31.6913 28.7969 35.8947 26.2209C43.4071 21.6174 53.6334 21.6174 74.0859 21.6174C87.7209 21.6174 94.5385 21.6174 99.5467 24.6864C102.349 26.4037 104.706 28.7598 106.423 31.5622C109.492 36.5704 109.492 43.388 109.492 57.023V68.4777C109.492 88.1134 109.492 97.9313 103.391 104.031C97.2915 110.131 87.4736 110.131 67.8379 110.131H56.3831C42.7481 110.131 35.9306 110.131 30.9223 107.063C28.12 105.345 25.7639 102.989 24.0466 100.187C20.9775 95.1783 20.9775 88.3608 20.9775 74.7257Z" stroke="#1C274C" stroke-width="15.6201"/>
<path id="Vector_9" opacity="0.5" d="M52.2178 65.8744C52.2178 60.5072 52.2178 57.8237 53.5622 55.9288C54.0366 55.2602 54.6204 54.6764 55.289 54.2021C57.1838 52.8576 59.8674 52.8576 65.2345 52.8576C70.6017 52.8576 73.2852 52.8576 75.1801 54.2021C75.8487 54.6764 76.4325 55.2602 76.9068 55.9288C78.2513 57.8237 78.2513 60.5072 78.2513 65.8744C78.2513 71.2415 78.2513 73.9251 76.9068 75.8199C76.4325 76.4885 75.8487 77.0723 75.1801 77.5467C73.2852 78.8911 70.6017 78.8911 65.2345 78.8911C59.8674 78.8911 57.1838 78.8911 55.289 77.5467C54.6204 77.0723 54.0366 76.4885 53.5622 75.8199C52.2178 73.9251 52.2178 71.2415 52.2178 65.8744Z" fill="#1C274C"/>
<path id="Vector_10" opacity="0.5" d="M52.2178 185.628C52.2178 180.261 52.2178 177.578 53.5622 175.683C54.0366 175.014 54.6204 174.431 55.289 173.956C57.1838 172.612 59.8674 172.612 65.2345 172.612C70.6017 172.612 73.2852 172.612 75.1801 173.956C75.8487 174.431 76.4325 175.014 76.9068 175.683C78.2513 177.578 78.2513 180.261 78.2513 185.628C78.2513 190.996 78.2513 193.679 76.9068 195.574C76.4325 196.243 75.8487 196.826 75.1801 197.301C73.2852 198.645 70.6017 198.645 65.2345 198.645C59.8674 198.645 57.1838 198.645 55.289 197.301C54.6204 196.826 54.0366 196.243 53.5622 195.574C52.2178 193.679 52.2178 190.996 52.2178 185.628Z" fill="#1C274C"/>
<path id="Vector_11" opacity="0.5" d="M166.765 185.628C166.765 178.316 166.765 174.66 168.52 172.033C169.28 170.896 170.256 169.92 171.393 169.16C174.02 167.405 177.676 167.405 184.989 167.405C192.301 167.405 195.957 167.405 198.584 169.16C199.721 169.92 200.697 170.896 201.457 172.033C203.212 174.66 203.212 178.316 203.212 185.628C203.212 192.941 203.212 196.597 201.457 199.224C200.697 200.361 199.721 201.337 198.584 202.097C195.957 203.852 192.301 203.852 184.989 203.852C177.676 203.852 174.02 203.852 171.393 202.097C170.256 201.337 169.28 200.361 168.52 199.224C166.765 196.597 166.765 192.941 166.765 185.628Z" fill="#1C274C"/>
</g>
</g>
</svg>
